<svg id="Calque_1" data-name="Calque 1" xmlns="http://www.w3.org/2000/svg" viewBox="0 0 514.51 51.84"><defs><style>.cls-1{fill:#909090;}.cls-2{fill:#1c3b5d;}</style></defs><title>LOGOOOO</title><path class="cls-1" d="M185.68,258.9a1,1,0,0,1,.94-0.94h28.87a1,1,0,0,1,.94.94v1.22a1,1,0,0,1-.94.94H189.14v21.89H212a1,1,0,0,1,.94.94c0,0.79.14,2.09-.94,2.09H189.14l-0.07,21.46a1,1,0,0,1-1.15.94h-1.3a1,1,0,0,1-.94-0.94V258.9Z" transform="translate(-185.68 -257.24)"/><path class="cls-1" d="M226.36,258.9a1,1,0,0,1,.94-0.94h1.51a1,1,0,0,1,.94.94v30.75c0,9.29,5.83,16.13,15.41,16.13s15.55-6.77,15.55-16.06V258.9a0.86,0.86,0,0,1,1-.94h1.44a1,1,0,0,1,.94.94V290c0,11-7.49,19.08-18.94,19.08S226.36,301,226.36,290V258.9Z" transform="translate(-185.68 -257.24)"/><path class="cls-1" d="M286.41,261.06H272.66a0.88,0.88,0,0,1-.94-1.08V258.9a0.91,0.91,0,0,1,.94-0.94h31a0.91,0.91,0,0,1,.94.94v1.22a0.91,0.91,0,0,1-.94.94H289.79v46.37a1,1,0,0,1-1.15.94h-1.3a1,1,0,0,1-.94-0.94V261.06Z" transform="translate(-185.68 -257.24)"/><path class="cls-1" d="M312.18,258.9a1,1,0,0,1,.94-0.94h1.51a1,1,0,0,1,.94.94v30.75c0,9.29,5.83,16.13,15.41,16.13s15.55-6.77,15.55-16.06V258.9a0.86,0.86,0,0,1,1-.94H349a1,1,0,0,1,.94.94V290c0,11-7.49,19.08-18.94,19.08S312.18,301,312.18,290V258.9Z" transform="translate(-185.68 -257.24)"/><path class="cls-1" d="M364.6,258.9a0.91,0.91,0,0,1,.94-0.94h17.86c8.78,0,16.06,6.62,16.06,15.41,0,7.27-5,13.11-11.88,15l10.51,18.65c0.36,0.58.22,1.3-.5,1.3h-2.23a1,1,0,0,1-1-.65L383.9,288.85c-0.94.07-1.73,0.07-2.66,0.07H368v18.51a1,1,0,0,1-1.15.94h-1.3a1,1,0,0,1-.94-0.94V258.9Zm18.65,27A12.58,12.58,0,0,0,396,273.37c0-6.84-5.83-12.1-12.82-12.1H368.05V285.9h15.19Z" transform="translate(-185.68 -257.24)"/><path class="cls-1" d="M411.4,258.9a1,1,0,0,1,.94-0.94h28.87a1,1,0,0,1,.94.94v1.22a1,1,0,0,1-.94.94H414.85v19.87h22.83a1,1,0,0,1,.94.94v1.22a1,1,0,0,1-.94.94H414.85v21.31h26.35a1,1,0,0,1,.94.94v1.15a1,1,0,0,1-.94.94H412.33a1,1,0,0,1-.94-0.94V258.9Z" transform="translate(-185.68 -257.24)"/><path class="cls-2" d="M491.25,257.24a27.22,27.22,0,0,1,17.57,6.7,1.39,1.39,0,0,1,.07,2l-4.46,4.68a1.23,1.23,0,0,1-1.87,0,16.33,16.33,0,0,0-10.87-4.18c-9,0-16.13,7.7-16.13,16.71a16.38,16.38,0,0,0,16.2,16.49,22.52,22.52,0,0,0,8.57-1.8v-6.12h-5.76a1.31,1.31,0,0,1-1.37-1.3v-5.69a1.32,1.32,0,0,1,1.37-1.37h13.83a1.35,1.35,0,0,1,1.3,1.37v18.43a1.38,1.38,0,0,1-.58,1.15A36.38,36.38,0,0,1,491.25,309,25.89,25.89,0,0,1,491.25,257.24Z" transform="translate(-185.68 -257.24)"/><path class="cls-2" d="M520.26,259.33a1.37,1.37,0,0,1,1.37-1.37h20.59a15.6,15.6,0,0,1,15.7,15.48c0,6.62-4.39,12-10.66,14.54l9.87,18.29a1.36,1.36,0,0,1-1.22,2.09h-7.56a1.24,1.24,0,0,1-1.15-.65l-9.58-19.08h-8V307a1.42,1.42,0,0,1-1.37,1.37h-6.62a1.37,1.37,0,0,1-1.37-1.37V259.33Zm21.17,21.6a7.33,7.33,0,0,0,7.13-7.34,7.16,7.16,0,0,0-7.13-7H529.69v14.33h11.74Z" transform="translate(-185.68 -257.24)"/><path class="cls-2" d="M561.66,306.49L584.05,258a1.3,1.3,0,0,1,1.22-.79H586a1.23,1.23,0,0,1,1.22.79l22.18,48.46a1.27,1.27,0,0,1-1.22,1.87h-6.26a2.07,2.07,0,0,1-2.09-1.44l-3.53-7.78H574.76l-3.53,7.78a2.17,2.17,0,0,1-2.09,1.44h-6.26A1.27,1.27,0,0,1,561.66,306.49Zm31.11-15.34-7.2-15.84h-0.22l-7.06,15.84h14.47Z" transform="translate(-185.68 -257.24)"/><path class="cls-2" d="M615.95,258.54a1.35,1.35,0,0,1,1.37-1.3h1.8l30,31.83h0.07V259.33a1.37,1.37,0,0,1,1.37-1.37h6.63a1.42,1.42,0,0,1,1.37,1.37v48.46a1.35,1.35,0,0,1-1.37,1.3h-1.73L625.31,276h-0.07v31a1.37,1.37,0,0,1-1.37,1.37h-6.55a1.42,1.42,0,0,1-1.37-1.37V258.54Z" transform="translate(-185.68 -257.24)"/><path class="cls-2" d="M678.37,266.6h-11a1.37,1.37,0,0,1-1.37-1.37v-5.9a1.37,1.37,0,0,1,1.37-1.37h31.47a1.37,1.37,0,0,1,1.37,1.37v5.9a1.37,1.37,0,0,1-1.37,1.37h-11V307a1.42,1.42,0,0,1-1.37,1.37h-6.7a1.42,1.42,0,0,1-1.37-1.37V266.6Z" transform="translate(-185.68 -257.24)"/></svg>